<svg width="286" height="268" viewBox="0 0 286 268" fill="none" xmlns="http://www.w3.org/2000/svg">
<path d="M246.221 207.847C194.043 255.123 137.633 271.445 76.9935 256.812C16.3537 242.179 -8.46637 206.159 2.53342 148.752C13.5332 91.3447 44.6993 48.8523 96.0316 21.2745C147.364 -6.3034 198.273 6.0785 248.759 58.4201C299.246 110.762 298.4 160.571 246.221 207.847Z" fill="#474BFF"/>
<path d="M184.691 232.331C65.8587 301.903 8.00154 269.7 11.1196 135.722C14.2376 1.74449 73.6538 -33.0415 189.368 31.3643C305.082 95.7701 303.523 162.759 184.691 232.331Z" fill="#295EE6" style="mix-blend-mode:multiply"/>
<path d="M103.423 172H90.8469V104.8H103.423V172ZM127.985 172H115.409V104.8H127.985V172ZM199.492 171.136V172H184.42L164.836 149.536H152.644V172H139.972V104.704C150.628 104.704 161.284 104.8 171.94 104.8C187.78 104.896 196.132 115.456 196.132 127.072C196.132 136.288 191.908 145.6 179.14 148.192L199.492 171.136ZM171.94 116.608H152.644V138.112H171.94C180.004 138.112 183.46 132.736 183.46 127.36C183.46 121.984 179.908 116.608 171.94 116.608Z" fill="white"/>
</svg>
