<svg width="53" height="50" viewBox="0 0 53 50" fill="none" xmlns="http://www.w3.org/2000/svg">
<path fill-rule="evenodd" clip-rule="evenodd" d="M15.3424 1.96256C12.0162 3.42535 9.21935 5.46953 6.95194 8.02488C4.68454 10.58 2.95517 13.5317 1.77292 16.8185C0.595668 20.091 0.00500659 23.4948 0 26.9773C0.00500659 30.4585 0.6044 33.6778 1.7728 36.6171C2.95517 39.5688 4.68442 42.0537 6.95194 44.1066C9.21935 46.1598 12.0162 47.6665 15.3424 48.7149C17.0494 49.253 18.7899 49.6158 20.6478 49.8155C20.9975 48.0299 21.3271 46.2403 21.5478 44.4327C21.7483 42.8047 21.8791 41.1251 21.8227 39.4706C21.8222 39.4505 21.822 39.4302 21.8213 39.4102C21.7153 36.3529 20.9742 33.3834 18.8303 30.9867C17.2775 29.2598 15.3453 27.9205 13.4484 26.5813C12.6363 26.0078 11.8101 25.4236 11.0161 24.7993C10.884 24.6952 10.7525 24.59 10.6221 24.4835C10.3615 24.2707 10.1054 24.0527 9.85542 23.8286C9.73048 23.7167 9.60707 23.6031 9.48528 23.4879C9.12026 23.1423 8.77108 22.7817 8.44344 22.4023C8.11592 22.023 7.80993 21.6249 7.53131 21.2047C6.91026 20.267 6.44732 19.2091 6.27477 18.1015C6.26022 18.0079 6.24706 17.9141 6.2367 17.8199C6.22797 17.7392 6.22063 17.6583 6.21493 17.5772C6.21038 17.5116 6.21038 17.4474 6.21248 17.384C6.21271 17.3766 6.2119 17.3687 6.21225 17.3612C6.21248 17.3628 6.21295 17.3643 6.2133 17.3659C6.2424 16.6965 6.64479 16.1956 7.40486 16.5629C7.95186 16.8272 8.33132 17.3472 8.77236 17.7701C9.48702 18.4485 10.4135 18.8714 11.3574 19.1269C15.1512 20.1578 19.4126 18.6952 22.8094 21.0301C23.6741 21.6205 24.2122 22.3517 24.7858 23.1184L24.8916 23.2594C25.0681 23.4885 25.4034 23.8673 25.8092 23.9202H25.8181H25.8268C25.8446 23.9202 25.8709 23.9202 25.8887 23.9114C25.9063 23.9114 25.924 23.9202 25.9504 23.9202H25.9593H25.9681C26.3739 23.8673 26.7091 23.4885 26.8856 23.2594L26.9915 23.1184C27.565 22.3517 28.1032 21.6205 28.9678 21.0301C32.3646 18.6952 36.626 20.1491 40.4197 19.1269C41.3726 18.8714 42.2902 18.4397 43.0049 17.7701C43.4461 17.3471 43.8254 16.8272 44.3724 16.5628C44.6724 16.422 45.0517 16.369 45.3077 16.5805C45.4503 16.7062 45.5303 16.8847 45.5685 17.0891C45.5947 17.2292 45.6074 17.3741 45.6099 17.5214C45.61 17.521 45.6103 17.5205 45.6104 17.52C45.6104 17.5223 45.6103 17.5249 45.6103 17.5273C45.611 17.5631 45.6093 17.5994 45.6088 17.6353C45.6079 17.673 45.6076 17.7106 45.6056 17.7487C45.6035 17.7864 45.6 17.8243 45.5968 17.8622C45.5935 17.8992 45.5902 17.9362 45.5859 17.9734C45.5815 18.012 45.5762 18.0506 45.5705 18.0893C45.565 18.1263 45.5594 18.1633 45.5529 18.2003C45.5461 18.2394 45.539 18.2784 45.5313 18.3174C45.5239 18.3548 45.5157 18.3921 45.5073 18.4294C45.4987 18.4683 45.49 18.507 45.4803 18.5458C45.4708 18.5841 45.4604 18.6222 45.4501 18.6605C45.4399 18.6983 45.4299 18.7359 45.419 18.7737C45.407 18.8145 45.3941 18.8553 45.3811 18.8962C45.3702 18.9309 45.3598 18.9659 45.3483 19.0007C45.3242 19.0729 45.299 19.1447 45.2727 19.2163C45.2607 19.2488 45.2478 19.2812 45.2354 19.3136C45.2191 19.3559 45.203 19.3984 45.186 19.4403C45.1723 19.4744 45.158 19.508 45.1438 19.5417C45.1271 19.5816 45.1104 19.6216 45.0933 19.6612C45.0788 19.6947 45.0639 19.7277 45.0491 19.7607C45.0315 19.7999 45.0138 19.8387 44.996 19.8773C44.981 19.9094 44.9658 19.9413 44.9507 19.973C44.9319 20.0121 44.9132 20.0507 44.8942 20.0892C44.8795 20.1191 44.8649 20.1488 44.85 20.1784C44.8298 20.2183 44.8096 20.2574 44.7894 20.2964C44.7755 20.3231 44.7616 20.3501 44.7475 20.3765C44.7248 20.4193 44.7022 20.4612 44.6795 20.5027C44.668 20.5238 44.6566 20.5453 44.6452 20.566C44.6112 20.6274 44.5773 20.6877 44.5438 20.7459C44.5439 20.7458 44.5436 20.7462 44.5438 20.7459C44.3805 21.03 44.2026 21.3056 44.0128 21.5721C43.8229 21.8385 43.6209 22.0964 43.4089 22.346C43.2512 22.5316 43.0866 22.711 42.9188 22.8878C42.6351 23.1862 42.3399 23.4735 42.0343 23.7476C41.8145 23.9445 41.5897 24.136 41.3613 24.3233C41.2218 24.4376 41.0806 24.5498 40.9385 24.661C40.8482 24.7319 40.7577 24.8027 40.6666 24.8723C39.364 25.8685 37.981 26.7778 36.6479 27.7467C35.9813 28.2312 35.3273 28.7305 34.7021 29.2629C34.077 29.7953 33.4805 30.3609 32.9292 30.978C31.1029 33.0222 30.2912 35.4805 30.0265 38.0622C30.0151 38.1709 30.0052 38.2801 29.9956 38.3894C29.9871 38.49 29.9795 38.5909 29.9722 38.6919C29.8379 40.5927 29.9814 42.5448 30.2117 44.4327C30.4204 46.1424 30.7267 47.8036 31.0553 49.4673C33.3233 49.0971 35.3954 48.533 37.4082 47.7547C40.7344 46.4769 43.549 44.8557 45.8518 42.8202C48.1544 40.7849 49.9014 38.441 51.0836 35.7272C52.2604 33.0172 52.8511 30.115 52.8566 26.9688C52.8511 23.821 52.2604 20.734 51.0836 17.6995C49.9014 14.6508 48.1544 11.8401 45.8518 9.2936C43.549 6.75593 40.7344 4.59721 37.4082 2.90547C34.0821 1.22256 30.6059 0.235698 26.3267 0.0330233C25.848 0.0110465 25.3789 0 24.9187 0C21.3348 0 18.2901 0.666512 15.3424 1.96256Z" fill="url(#paint0_linear_47_1243)"/>
<path fill-rule="evenodd" clip-rule="evenodd" d="M29.9723 38.6916V38.6929C29.8839 35.4207 30.6357 31.242 32.944 28.8807C34.4967 27.2946 36.2525 26.2462 38.1494 25.0215C40.9607 23.2191 44.8364 20.8022 45.6101 17.5213C45.6074 17.3738 45.5947 17.2291 45.5685 17.0889C45.5303 16.8844 45.4503 16.7059 45.3077 16.5803C45.0519 16.3687 44.6724 16.4217 44.3725 16.5625C43.8254 16.827 43.4461 17.3469 43.0049 17.7698C42.2902 18.4394 41.3727 18.8712 40.4199 19.1266C36.626 20.1488 32.3646 18.6949 28.9679 21.0299C28.1032 21.6203 27.565 22.3516 26.9915 23.1181L26.8856 23.2592C26.7093 23.4882 26.3739 23.8672 25.968 23.92H25.9593H25.9505C25.9239 23.92 25.9063 23.9113 25.8886 23.9113C25.8709 23.92 25.8445 23.92 25.8268 23.92H25.8181H25.8092C25.4033 23.8672 25.0681 23.4882 24.8916 23.2592L24.7858 23.1181C24.2122 22.3516 23.6741 21.6203 22.8095 21.0299C19.4127 18.6949 15.1512 20.1575 11.3574 19.1266C10.4134 18.8712 9.48705 18.4482 8.77227 17.7698C8.33122 17.347 7.95189 16.8271 7.40489 16.5627C6.64482 16.1953 6.24243 16.6964 6.21332 17.3657C6.89852 20.7264 10.8547 23.1905 13.7104 25.0215C15.6073 26.2462 17.363 27.2946 18.9159 28.8807C21.4568 31.48 22.1119 36.2821 21.8362 39.6524C21.8324 39.6148 21.8282 39.5763 21.8242 39.5382C21.8235 39.5157 21.8231 39.493 21.8226 39.4702C21.8792 41.125 21.7483 42.8045 21.5478 44.4324C21.3272 46.2402 20.9975 48.0298 20.6478 49.8152C22.4101 50.0045 24.2781 50.047 26.3268 49.9484C28.0131 49.8682 29.5755 49.7086 31.0553 49.4671C30.7267 47.8034 30.4204 46.1422 30.2118 44.4324C29.9815 42.5445 29.8379 40.5925 29.9723 38.6916Z" fill="white"/>
<path fill-rule="evenodd" clip-rule="evenodd" d="M38.1494 25.0217C36.2524 26.2464 34.4966 27.295 32.9439 28.8809C30.6356 31.2422 29.8838 35.421 29.9722 38.6931C29.9722 38.6926 29.9722 38.6923 29.9722 38.6918C29.9794 38.5909 29.987 38.4901 29.9957 38.3894C30.0049 38.2801 30.0149 38.171 30.0265 38.0622C30.2911 35.4806 31.1029 33.0223 32.9291 30.9781C33.4804 30.361 34.0768 29.7954 34.702 29.263C35.3273 28.7306 35.9813 28.2313 36.6479 27.7468C37.981 26.7779 39.364 25.8685 40.6665 24.8724C40.7577 24.8026 40.8481 24.7319 40.9386 24.661C41.0805 24.5497 41.2218 24.4376 41.3613 24.3232C41.5897 24.1361 41.8144 23.9445 42.0342 23.7475C42.3399 23.4737 42.6352 23.1863 42.9187 22.8878C43.0864 22.7111 43.2512 22.5316 43.4088 22.346C43.6209 22.0965 43.8229 21.8386 44.0127 21.5721C44.2026 21.3057 44.3801 21.0307 44.5435 20.7466C44.577 20.6883 44.6111 20.6275 44.6451 20.5661C44.6565 20.5453 44.6681 20.5237 44.6795 20.5028C44.7022 20.4611 44.7249 20.4194 44.7476 20.3766C44.7616 20.3502 44.7754 20.3232 44.7893 20.2964C44.8096 20.2574 44.8298 20.2182 44.8499 20.1785C44.8647 20.149 44.8795 20.1192 44.8943 20.0892C44.9131 20.0509 44.932 20.0122 44.9506 19.9731C44.9658 19.9415 44.9809 19.9095 44.9958 19.8774C45.0137 19.8388 45.0314 19.7999 45.049 19.7608C45.0638 19.7278 45.0787 19.6946 45.0933 19.6611C45.1105 19.6217 45.1272 19.5817 45.1439 19.5417C45.158 19.508 45.1723 19.4744 45.1861 19.4404C45.2029 19.3985 45.219 19.3559 45.2353 19.3136C45.2478 19.2811 45.2607 19.2489 45.2727 19.2163C45.299 19.1447 45.3243 19.0729 45.3483 19.0008C45.3598 18.966 45.3701 18.931 45.3811 18.8961C45.394 18.8553 45.4069 18.8146 45.4189 18.7738C45.43 18.7359 45.4399 18.6982 45.4501 18.6604C45.4604 18.6223 45.4707 18.5842 45.4803 18.5459C45.49 18.5071 45.4987 18.4683 45.5073 18.4295C45.5157 18.3921 45.5237 18.3547 45.5312 18.3175C45.539 18.2785 45.5462 18.2394 45.5528 18.2004C45.5593 18.1635 45.5651 18.1264 45.5704 18.0894C45.5761 18.0507 45.5815 18.0119 45.586 17.9735C45.5903 17.9361 45.5936 17.8993 45.5967 17.8623C45.6 17.8244 45.6035 17.7863 45.6056 17.7487C45.6076 17.7107 45.6079 17.6731 45.6086 17.6354C45.6093 17.5994 45.6108 17.5631 45.6104 17.5274C45.6102 17.5254 45.61 17.5236 45.61 17.5215C44.8363 20.8025 40.9607 23.2193 38.1494 25.0217Z" fill="#E7E7E7"/>
<path fill-rule="evenodd" clip-rule="evenodd" d="M21.8361 39.6525C22.1118 36.2822 21.4568 31.4801 18.9158 28.8807C17.363 27.2948 15.6072 26.2462 13.7103 25.0215C10.8546 23.1906 6.89854 20.7264 6.21322 17.3657C6.21299 17.3718 6.21264 17.3778 6.2124 17.3839C6.21031 17.4472 6.21031 17.5115 6.21497 17.577C6.22055 17.6582 6.22789 17.7391 6.23674 17.8197C6.2471 17.914 6.26026 18.0077 6.27481 18.1013C6.44737 19.209 6.91018 20.2668 7.53135 21.2044C7.80986 21.6248 8.11584 22.0228 8.44348 22.4021C8.77101 22.7815 9.1203 23.1422 9.48532 23.4877C9.60699 23.603 9.73041 23.7165 9.85546 23.8285C10.1054 24.0526 10.3616 24.2705 10.6222 24.4834C10.7525 24.5898 10.8839 24.695 11.0162 24.7991C11.81 25.4235 12.6362 26.0076 13.4483 26.5811C15.3452 27.9204 17.2774 29.2597 18.8303 30.9867C20.9743 33.3833 21.7154 36.3527 21.8212 39.4101C21.8219 39.4301 21.8219 39.4504 21.8226 39.4704C21.823 39.493 21.8234 39.5157 21.8241 39.5384C21.8282 39.5764 21.8323 39.6149 21.8361 39.6525Z" fill="#E7E7E7"/>
<defs>
<linearGradient id="paint0_linear_47_1243" x1="291.819" y1="2473.47" x2="5219.44" y2="2521.61" gradientUnits="userSpaceOnUse">
<stop stop-color="#FF077C"/>
<stop offset="1" stop-color="#FF3F4A"/>
</linearGradient>
</defs>
</svg>
